<svg id="Layer_1" enable-background="new 0 0 510 510" height="512" viewBox="0 0 510 510" width="512" xmlns="http://www.w3.org/2000/svg"><g><path d="m120 180h-30l-10-16.167 10-13.833h30l10 14z" fill="#4b5586"/><path d="m60 287.58v-32.58l-15-10-15 10v32.58l-30 42.42v30h30v-30l15-15 15 15v30h30v-30z" fill="#4b5586"/><path d="m90 255h-90v-135h90z" fill="#fc6363"/><path d="m390 180h30l10-15-10-15h-30l-10 15z" fill="#4b5586"/><path d="m480 287.58v-32.58l-15-10-15 10v32.58l-30 42.42v30h30v-30l15-15 15 15v30h30v-30z" fill="#4b5586"/><path d="m420 120h90v135h-90z" fill="#e63950"/><path d="m240 435-47.499 10-42.501-10v-75l45-10 45 10z" fill="#4b5586"/><path d="m240 510h-120v-75h120z" fill="#fcbf00"/><path d="m270 435 45 10 45-10v-75l-45-10-45 10z" fill="#4b5586"/><path d="m270 435h120v75h-120z" fill="#ff9200"/><path d="m180 75h-30v-30h30l10 15z" fill="#293e65"/><path d="m330 75h30v-30h-30l-10 15z" fill="#293e65"/><path d="m180 0v120l37.5 10 37.5-10 10-60-10-60z" fill="#fcbf00"/><path d="m330 0h-75v120l37.5 10 37.5-10z" fill="#ff9200"/><path d="m120 120v120l37.001 9 37.999-9 60-60 10-30-10-30z" fill="#25d9f8"/><path d="m390 120h-135v60l60 60 37.333 10 37.667-10z" fill="#00bdef"/><path d="m120 240v120h135l10-28.333-10-31.667-60-60z" fill="#00bdef"/><path d="m390 240h-75l-60 60v60h135z" fill="#009ae4"/><path d="m195 240c0 33.083 26.915 60 60 60l10-60-10-60c-33.083 0-60 26.915-60 60z" fill="#ecf2ff"/><path d="m315 240c0-33.083-26.915-60-60-60v120c33.083 0 60-26.915 60-60z" fill="#d9e5ff"/></g></svg>