<svg id="Capa_1" enable-background="new 0 0 502 502" height="512" viewBox="0 0 502 502" width="512" xmlns="http://www.w3.org/2000/svg" xmlns:xlink="http://www.w3.org/1999/xlink"><linearGradient id="SVGID_1_" gradientUnits="userSpaceOnUse" x1="251" x2="251" y1="502" y2="332.247"><stop offset="0" stop-color="#8d889d"/><stop offset=".9777" stop-color="#c1bfc5"/></linearGradient><linearGradient id="lg1"><stop offset="0" stop-color="#78c5e6"/><stop offset=".9788" stop-color="#bbe3f4"/></linearGradient><linearGradient id="SVGID_2_" gradientUnits="userSpaceOnUse" x1="76.396" x2="76.396" xlink:href="#lg1" y1="184.312" y2="45.82"/><linearGradient id="SVGID_3_" gradientUnits="userSpaceOnUse" x1="425.604" x2="425.604" xlink:href="#lg1" y1="184.312" y2="45.82"/><linearGradient id="lg2"><stop offset=".0212" stop-color="#f3385d"/><stop offset="1" stop-color="#fd869c"/></linearGradient><linearGradient id="SVGID_4_" gradientUnits="userSpaceOnUse" x1="63.552" x2="63.552" xlink:href="#lg2" y1="274.537" y2="162.473"/><linearGradient id="SVGID_5_" gradientUnits="userSpaceOnUse" x1="438.448" x2="438.448" xlink:href="#lg2" y1="274.537" y2="162.473"/><linearGradient id="SVGID_6_" gradientUnits="userSpaceOnUse" x1="251" x2="251" y1="336.256" y2="69.369"><stop offset=".0223" stop-color="#c1bfc5"/><stop offset="1" stop-color="#8d889d"/></linearGradient><linearGradient id="lg3"><stop offset="0" stop-color="#fd869c"/><stop offset=".9788" stop-color="#f3385d"/></linearGradient><radialGradient id="SVGID_7_" cx="71.385" cy="27.921" gradientUnits="userSpaceOnUse" r="27.921" xlink:href="#lg3"/><radialGradient id="SVGID_8_" cx="430.615" cy="27.921" gradientUnits="userSpaceOnUse" r="27.921" xlink:href="#lg3"/><linearGradient id="SVGID_9_" gradientUnits="userSpaceOnUse" x1="251" x2="251" xlink:href="#lg3" y1="477.741" y2="262.745"/><linearGradient id="lg4"><stop offset=".0005580357" stop-color="#f4e46a"/><stop offset=".9777" stop-color="#f7f0a9"/></linearGradient><linearGradient id="SVGID_10_" gradientUnits="userSpaceOnUse" x1="94.698" x2="94.698" xlink:href="#lg4" y1="454.777" y2="379.462"/><linearGradient id="SVGID_11_" gradientUnits="userSpaceOnUse" x1="171.125" x2="171.125" xlink:href="#lg4" y1="454.777" y2="379.462"/><linearGradient id="SVGID_12_" gradientUnits="userSpaceOnUse" x1="132.911" x2="132.911" xlink:href="#lg1" y1="454.777" y2="379.462"/><linearGradient id="SVGID_13_" gradientUnits="userSpaceOnUse" x1="407.303" x2="407.303" xlink:href="#lg4" y1="454.777" y2="379.462"/><linearGradient id="SVGID_14_" gradientUnits="userSpaceOnUse" x1="330.875" x2="330.875" xlink:href="#lg4" y1="454.777" y2="379.462"/><linearGradient id="SVGID_15_" gradientUnits="userSpaceOnUse" x1="369.089" x2="369.089" xlink:href="#lg1" y1="454.777" y2="379.462"/><g><path d="m377.227 332.247h-252.454c-19.6 0-35.489 15.889-35.489 35.489v98.776c0 19.6 15.889 35.489 35.489 35.489h252.454c19.6 0 35.489-15.889 35.489-35.489v-98.776c0-19.6-15.889-35.489-35.489-35.489z" fill="url(#SVGID_1_)"/><path d="m53.486 184.312h35.798l10.022-21.839-10.022-31.385v-85.268h-35.798z" fill="url(#SVGID_2_)"/><path d="m53.486 83.068c5.641 1.836 11.654 2.84 17.899 2.84s12.258-1.005 17.899-2.84v-37.248h-35.798z" fill="#59c2e7"/><path d="m448.514 184.312h-35.798l-10.022-21.839 10.022-31.385v-85.268h35.798z" fill="url(#SVGID_3_)"/><path d="m448.514 83.068c-5.641 1.836-11.654 2.84-17.899 2.84s-12.258-1.005-17.899-2.84v-37.248h35.798z" fill="#59c2e7"/><path d="m83.83 162.473c-30.946 0-56.032 25.086-56.032 56.032 0 30.946 25.086 56.032 56.032 56.032h15.476v-112.064z" fill="url(#SVGID_4_)"/><path d="m418.17 162.473c30.946 0 56.032 25.086 56.032 56.032 0 30.946-25.086 56.032-56.032 56.032h-15.476v-112.064z" fill="url(#SVGID_5_)"/><path d="m350.997 69.369h-199.994c-34.086 0-61.719 27.633-61.719 61.719v143.449c0 34.086 27.632 61.719 61.719 61.719h199.994c34.086 0 61.719-27.633 61.719-61.719v-143.449c0-34.087-27.633-61.719-61.719-61.719z" fill="url(#SVGID_6_)"/><circle cx="71.385" cy="27.921" fill="url(#SVGID_7_)" r="27.921"/><circle cx="430.615" cy="27.921" fill="url(#SVGID_8_)" r="27.921"/><g><ellipse cx="138.889" cy="231.607" fill="#fb99ac" rx="19.054" ry="15.312"/><ellipse cx="363.111" cy="231.607" fill="#fb99ac" rx="19.054" ry="15.312"/><circle cx="171.555" cy="193.825" fill="#fff" r="37.782"/><circle cx="330.445" cy="193.825" fill="#fff" r="37.782"/><g fill="#383842"><g><circle cx="171.555" cy="193.825" r="22.518"/><circle cx="330.445" cy="193.825" r="22.518"/></g><path d="m251 231.42c-6.361 0-12.722-2.405-17.912-7.216-2.025-1.878-2.145-5.041-.267-7.066 1.877-2.025 5.042-2.144 7.066-.268 6.542 6.065 15.681 6.067 22.225 0 2.023-1.875 5.188-1.757 7.066.268 1.877 2.025 1.758 5.188-.268 7.066-5.188 4.811-11.55 7.216-17.91 7.216z"/></g></g><path d="m251 289.003c-88.663-86.65-234.229 58.496-19.737 183.404 12.212 7.112 27.262 7.112 39.474 0 214.492-124.908 68.926-270.054-19.737-183.404z" fill="url(#SVGID_9_)"/><g><path d="m354.604 347.434c-5.529-.265-9.795-4.962-9.53-10.491.254-5.295-1.269-10.941-4.29-15.897-2.88-4.727-1.384-10.894 3.342-13.773 4.727-2.882 10.893-1.383 13.773 3.342 5.158 8.464 7.646 17.901 7.194 27.289-.263 5.524-4.957 9.795-10.489 9.53z" fill="#fdb0bf"/></g><g><path d="m318.938 303.591c-2.18-.624-4.413-.988-6.638-1.081-5.53-.232-9.825-4.902-9.593-10.433.232-5.53 4.907-9.822 10.433-9.593 3.806.16 7.614.778 11.318 1.839 5.32 1.524 8.398 7.073 6.874 12.394-1.522 5.317-7.068 8.398-12.394 6.874z" fill="#fdb0bf"/></g><path d="m194.049 353.162c-7.096-2.477-14.636-3.766-22.373-3.766h-50.454c3.224 17.881 12.258 37.457 28.877 57.65l43.698-15.002c2.965-1.018 5.659-2.7 7.876-4.917 10.69-10.689 6.648-28.983-7.624-33.965z" fill="#f3385d"/><path d="m105.19 379.461 27.721 37.662-27.721 37.653h-11.054c-10.403 0-19.813-4.209-26.628-11.024-6.805-6.815-11.024-16.236-11.024-26.628 0-20.796 16.857-37.663 37.653-37.663z" fill="url(#SVGID_10_)"/><path d="m209.339 417.124c0 20.796-16.867 37.652-37.663 37.652h-11.044l-27.721-37.653 27.721-37.662h11.044c10.393 0 19.813 4.219 26.628 11.034 6.815 6.816 11.035 16.236 11.035 26.629z" fill="url(#SVGID_11_)"/><path d="m105.19 379.461h55.441v75.315h-55.441z" fill="url(#SVGID_12_)"/><path d="m396.81 379.461-27.721 37.662 27.721 37.653h11.054c10.403 0 19.813-4.209 26.628-11.024 6.805-6.815 11.024-16.236 11.024-26.628 0-20.796-16.857-37.663-37.653-37.663z" fill="url(#SVGID_13_)"/><path d="m292.661 417.124c0 20.796 16.867 37.652 37.663 37.652h11.044l27.721-37.653-27.721-37.662h-11.044c-10.393 0-19.813 4.219-26.628 11.034-6.815 6.816-11.035 16.236-11.035 26.629z" fill="url(#SVGID_14_)"/><path d="m341.368 379.461h55.441v75.315h-55.441z" fill="url(#SVGID_15_)"/></g></svg>